<svg width="30" height="32" viewBox="0 0 30 32" fill="none" xmlns="http://www.w3.org/2000/svg">
<path d="M9.49219 2.03613C8.92383 2.17676 8.26172 2.70996 8.00977 3.22558C7.94531 3.37207 6.78516 7.06933 5.44336 11.4521C3.00586 19.4033 3 19.415 3 19.9424C3 20.3936 3.01758 20.5166 3.15234 20.8096C3.35742 21.249 3.81445 21.7236 4.23633 21.9404C4.54688 22.0986 4.62891 22.1104 5.19727 22.1104C5.7832 22.1104 5.83008 22.0986 6.21094 21.9111C6.66211 21.6768 7.01367 21.3193 7.21875 20.8799C7.29492 20.7158 7.57617 19.7842 7.8457 18.7998L8.33789 17.0127L11.2383 16.9951L14.1387 16.9834L14.6777 18.7822C14.9766 19.7725 15.2871 20.7217 15.3691 20.8916C15.5625 21.2842 16.0488 21.7471 16.4824 21.9521C16.7871 22.0928 16.8926 22.1104 17.4375 22.1104C18.0176 22.1104 18.082 22.0986 18.4453 21.917C18.9434 21.6768 19.4238 21.167 19.6113 20.6924C19.7168 20.4287 19.7461 20.2412 19.7402 19.8252V19.2979L17.2969 11.4463C15.9551 7.12793 14.7773 3.43652 14.6836 3.2373C14.4727 2.80371 14.0391 2.38183 13.582 2.1709L13.248 2.01269L11.4609 2.00097C10.4766 1.99512 9.5918 2.01269 9.49219 2.03613ZM11.3672 6.06738C11.6309 7.15137 12.2344 9.33691 12.8672 11.4932C13.1895 12.5771 13.4531 13.4971 13.4531 13.5264C13.4531 13.5615 12.6738 13.585 11.2559 13.585C9.25781 13.585 9.05859 13.5732 9.05859 13.4912C9.05859 13.4385 9.32227 12.4541 9.64453 11.3057C10.2539 9.12012 10.541 7.99512 10.9102 6.36035C11.0332 5.82129 11.1504 5.38183 11.168 5.38183C11.1855 5.38183 11.2793 5.69238 11.3672 6.06738Z" fill="#7E7E7E"/>
<path d="M23.3789 0.100046C23.168 0.143796 22.7988 0.287546 22.5586 0.412546C22.1543 0.625046 21.9727 0.800046 20.4023 2.4563C19.4648 3.4563 18.6211 4.38755 18.5273 4.52505C18.3926 4.7313 18.3691 4.83755 18.3691 5.1813C18.3691 5.52505 18.3984 5.6313 18.5273 5.8313C18.8379 6.32505 19.3359 6.52505 19.8633 6.37505C20.0977 6.31255 20.2969 6.1188 21.7793 4.52505C23.4668 2.71255 23.7012 2.5063 24.1113 2.50005C24.6094 2.50005 24.6797 2.5563 26.3965 4.3688C27.2988 5.32505 28.1309 6.17505 28.2422 6.2563C28.541 6.47505 29.127 6.4688 29.4317 6.25005C29.8828 5.92505 30.082 5.3688 29.9414 4.81255C29.877 4.5688 29.6836 4.3313 28.3359 2.88755C27.4981 1.9813 26.6367 1.0938 26.4258 0.906296C25.5293 0.131296 24.4688 -0.156204 23.3789 0.100046Z" fill="#7E7E7E"/>
</svg>
