<svg width="60" height="61" viewBox="0 0 60 61" fill="none" xmlns="http://www.w3.org/2000/svg">
<g clip-path="url(#clip0)">
<path d="M18.1941 31.6604C19.8167 36.9811 23.9865 42.5094 29.6092 42.5094C35.2318 42.5094 39.4111 36.9811 41.0243 31.6604C42.4111 31.1792 43.5714 29.7925 44.0244 28C44.647 25.5377 43.7318 23.2547 41.9583 22.566C42.1187 21.9151 42.2036 21.2453 42.2036 20.5566C42.2034 14.717 36.3828 10 29.2034 10C22.0242 10 16.1846 14.7264 16.1846 20.5566C16.1846 21.3868 16.3166 22.1981 16.5336 22.9717C15.2506 23.9434 14.6657 25.9057 15.194 28.0094C15.6469 29.7925 16.8072 31.1792 18.1941 31.6604ZM17.3261 24.8774C17.5147 24.566 17.76 24.3585 18.0713 24.2736C18.128 24.2642 18.2034 24.2547 18.2695 24.2547C18.3261 24.2547 18.3732 24.2547 18.4298 24.2642L19.3261 24.3491L19.4581 23.4623C19.7317 21.6132 20.3072 19.9528 21.1185 18.5377C22.6374 20.2453 25.6563 21.4057 29.1374 21.4057C33.0713 21.4057 36.4204 19.9245 37.6563 17.8491C38.694 19.4057 39.4298 21.3019 39.7505 23.4623L39.8826 24.3491L40.7788 24.2642C40.9109 24.2547 41.0335 24.2547 41.1373 24.2736C41.2033 24.283 41.2412 24.3302 41.3071 24.3491C42.1185 24.7075 42.5335 26.1321 42.1846 27.5472C41.826 28.9906 40.8826 29.8396 40.1374 29.934L39.5147 30.0189L39.3448 30.6226C37.9864 35.5849 34.2129 40.6226 29.5901 40.6226C24.9675 40.6226 21.1939 35.5943 19.8543 30.6226L19.6845 30.0189L19.0618 29.934C18.3165 29.8396 17.3731 28.9717 17.0147 27.5472C16.779 26.5283 16.9205 25.5 17.3261 24.8774Z" fill="black"/>
<path d="M41.1886 38.5915C39.981 40.6481 38.5848 42.3934 36.7263 43.3272C32.9056 45.2801 30.0659 46.865 30.0659 46.865L30.0565 46.8555V46.8084L30.0093 46.8272L29.9622 46.8084V46.8555L29.9527 46.865C29.9527 46.865 27.1131 45.2896 23.2924 43.3272C21.4433 42.3744 20.0471 40.6386 18.8301 38.5915C13.1792 40.8839 9.22632 46.1764 9.22632 50.7802C9.22632 55.6387 9.22632 60.3462 9.22632 60.3462H29.9527H30.0282H50.7735C50.7735 60.3462 50.7735 55.6387 50.7735 50.7802C50.7925 46.1764 46.8396 40.8934 41.1886 38.5915Z" fill="black"/>
</g>
<defs>
<clipPath id="clip0">
<rect width="50" height="50" fill="white" transform="translate(5 9.5)"/>
</clipPath>
</defs>
</svg>
