<svg width="31" height="31" viewBox="0 0 31 31" fill="none" xmlns="http://www.w3.org/2000/svg">
<rect x="0.0895996" y="0.5" width="30" height="30" fill="white"/>
<g clip-path="url(#clip0)">
<path d="M24.4435 5.87698H5.73592C5.37958 5.87698 5.0896 6.16697 5.0896 6.52331V9.39599C5.0896 9.75233 5.37958 10.0423 5.73592 10.0423H24.4433C24.7994 10.0423 25.0896 9.75233 25.0896 9.39599V6.52331C25.0898 6.16697 24.7998 5.87698 24.4435 5.87698Z" fill="#448DCA"/>
<path d="M24.4435 13.4174H5.73592C5.37958 13.4174 5.0896 13.7074 5.0896 14.0637V16.9364C5.0896 17.2928 5.37958 17.5827 5.73592 17.5827H24.4433C24.7994 17.5827 25.0896 17.2928 25.0896 16.9364V14.0637C25.0898 13.7074 24.7998 13.4174 24.4435 13.4174Z" fill="#448DCA"/>
<path d="M24.4435 20.9578H5.73592C5.37958 20.9578 5.0896 21.2478 5.0896 21.6041V24.4768C5.0896 24.8332 5.37958 25.1232 5.73592 25.1232H24.4433C24.7994 25.1232 25.0896 24.8332 25.0896 24.4768V21.6041C25.0898 21.2476 24.7998 20.9578 24.4435 20.9578Z" fill="#448DCA"/>
</g>
<defs>
<clipPath id="clip0">
<rect width="20" height="20" fill="white" transform="translate(5.0896 5.49997)"/>
</clipPath>
</defs>
</svg>
