<svg width="31" height="31" viewBox="0 0 31 31" fill="none" xmlns="http://www.w3.org/2000/svg">
<rect x="0.0895996" y="0.5" width="30" height="30" fill="white"/>
<g clip-path="url(#clip0)">
<path d="M13.2783 6.12503H5.50845C5.27724 6.12503 5.0896 6.31267 5.0896 6.54388V14.3139C5.0896 14.5451 5.27724 14.7328 5.50845 14.7328H13.2783C13.5095 14.7328 13.6971 14.5451 13.6971 14.3139V6.54388C13.6971 6.31267 13.5095 6.12503 13.2783 6.12503Z" fill="#448DCA"/>
<path d="M24.6708 6.12503H16.9008C16.6695 6.12503 16.4819 6.31267 16.4819 6.54388V14.3139C16.4819 14.5451 16.6695 14.7328 16.9008 14.7328H24.6708C24.902 14.7328 25.0897 14.5451 25.0897 14.3139V6.54388C25.0897 6.31267 24.9022 6.12503 24.6708 6.12503Z" fill="#448DCA"/>
<path d="M13.2783 17.5173H5.50845C5.27724 17.5173 5.0896 17.7049 5.0896 17.9361V25.7062C5.0896 25.9374 5.27724 26.125 5.50845 26.125H13.2783C13.5095 26.125 13.6971 25.9374 13.6971 25.7062V17.9361C13.6971 17.7051 13.5095 17.5173 13.2783 17.5173Z" fill="#448DCA"/>
<path d="M24.6708 17.5173H16.9008C16.6695 17.5173 16.4819 17.7049 16.4819 17.9361V25.7062C16.4819 25.9374 16.6695 26.125 16.9008 26.125H24.6708C24.902 26.125 25.0897 25.9374 25.0897 25.7062V17.9361C25.0897 17.7051 24.9022 17.5173 24.6708 17.5173Z" fill="#448DCA"/>
</g>
<defs>
<clipPath id="clip0">
<rect width="20" height="20" fill="white" transform="translate(5.0896 6.12503)"/>
</clipPath>
</defs>
</svg>
