<svg width="40" height="40" viewBox="0 0 40 40" fill="none" xmlns="http://www.w3.org/2000/svg">
<path d="M3.75 8.67218H36.25V31.3275H3.75V8.67218Z" fill="#D60A2E"/>
<path d="M3.75 8.67218H36.25V11.9087H3.75V8.67218Z" fill="#F0F0F0"/>
<path d="M3.75 15.1453H36.25V18.3819H3.75V15.1453Z" fill="#F0F0F0"/>
<path d="M3.75 21.6181H36.25V24.8547H3.75V21.6181Z" fill="#F0F0F0"/>
<path d="M3.75 28.0912H36.25V31.3278H3.75V28.0912Z" fill="#F0F0F0"/>
<path d="M3.75 8.67218H18.8541V18.3816H3.75V8.67218Z" fill="#0B55B1"/>
<path d="M5.8097 9.80597L6.05439 10.3019L6.60157 10.3816L6.20563 10.7675L6.29907 11.3125L5.8097 11.055L5.32032 11.3125L5.41376 10.7675L5.01782 10.3816L5.56501 10.3019L5.8097 9.80597Z" fill="#F0F0F0"/>
<path d="M8.00657 9.80597L8.25157 10.3019L8.79875 10.3816L8.4025 10.7675L8.49625 11.3125L8.00657 11.055L7.51719 11.3125L7.61063 10.7675L7.21469 10.3816L7.76188 10.3019L8.00657 9.80597Z" fill="#F0F0F0"/>
<path d="M10.2037 9.80597L10.4484 10.3019L10.9956 10.3816L10.5997 10.7675L10.6931 11.3125L10.2037 11.055L9.71406 11.3125L9.8075 10.7675L9.41156 10.3816L9.95875 10.3019L10.2037 9.80597Z" fill="#F0F0F0"/>
<path d="M12.4006 9.80597L12.6453 10.3019L13.1925 10.3816L12.7966 10.7675L12.89 11.3125L12.4006 11.055L11.9113 11.3125L12.0047 10.7675L11.6088 10.3816L12.156 10.3019L12.4006 9.80597Z" fill="#F0F0F0"/>
<path d="M14.5975 9.80597L14.8422 10.3019L15.3894 10.3816L14.9934 10.7675L15.0869 11.3125L14.5975 11.055L14.1081 11.3125L14.2016 10.7675L13.8056 10.3816L14.3528 10.3019L14.5975 9.80597Z" fill="#F0F0F0"/>
<path d="M16.7944 9.80597L17.0391 10.3019L17.5863 10.3816L17.1903 10.7675L17.2838 11.3125L16.7944 11.055L16.305 11.3125L16.3984 10.7675L16.0025 10.3816L16.5497 10.3019L16.7944 9.80597Z" fill="#F0F0F0"/>
<path d="M5.8097 11.7847L6.05439 12.2804L6.60157 12.36L6.20563 12.746L6.29907 13.291L5.8097 13.0338L5.32032 13.291L5.41376 12.746L5.01782 12.36L5.56501 12.2804L5.8097 11.7847Z" fill="#F0F0F0"/>
<path d="M8.00657 11.7847L8.25157 12.2804L8.79875 12.36L8.4025 12.746L8.49625 13.291L8.00657 13.0338L7.51719 13.291L7.61063 12.746L7.21469 12.36L7.76188 12.2804L8.00657 11.7847Z" fill="#F0F0F0"/>
<path d="M10.2037 11.7847L10.4484 12.2804L10.9956 12.36L10.5997 12.746L10.6931 13.291L10.2037 13.0338L9.71406 13.291L9.8075 12.746L9.41156 12.36L9.95875 12.2804L10.2037 11.7847Z" fill="#F0F0F0"/>
<path d="M12.4006 11.7847L12.6453 12.2804L13.1925 12.36L12.7966 12.746L12.89 13.291L12.4006 13.0338L11.9113 13.291L12.0047 12.746L11.6088 12.36L12.156 12.2804L12.4006 11.7847Z" fill="#F0F0F0"/>
<path d="M14.5975 11.7847L14.8422 12.2804L15.3894 12.36L14.9934 12.746L15.0869 13.291L14.5975 13.0338L14.1081 13.291L14.2016 12.746L13.8056 12.36L14.3528 12.2804L14.5975 11.7847Z" fill="#F0F0F0"/>
<path d="M16.7944 11.7847L17.0391 12.2804L17.5863 12.36L17.1903 12.746L17.2838 13.291L16.7944 13.0338L16.305 13.291L16.3984 12.746L16.0025 12.36L16.5497 12.2804L16.7944 11.7847Z" fill="#F0F0F0"/>
<path d="M5.8097 13.7632L6.05439 14.2591L6.60157 14.3385L6.20563 14.7244L6.29907 15.2694L5.8097 15.0122L5.32032 15.2694L5.41376 14.7244L5.01782 14.3385L5.56501 14.2591L5.8097 13.7632Z" fill="#F0F0F0"/>
<path d="M8.00657 13.7632L8.25157 14.2591L8.79875 14.3385L8.4025 14.7244L8.49625 15.2694L8.00657 15.0122L7.51719 15.2694L7.61063 14.7244L7.21469 14.3385L7.76188 14.2591L8.00657 13.7632Z" fill="#F0F0F0"/>
<path d="M10.2037 13.7632L10.4484 14.2591L10.9956 14.3385L10.5997 14.7244L10.6931 15.2694L10.2037 15.0122L9.71406 15.2694L9.8075 14.7244L9.41156 14.3385L9.95875 14.2591L10.2037 13.7632Z" fill="#F0F0F0"/>
<path d="M12.4006 13.7632L12.6453 14.2591L13.1925 14.3385L12.7966 14.7244L12.89 15.2694L12.4006 15.0122L11.9113 15.2694L12.0047 14.7244L11.6088 14.3385L12.156 14.2591L12.4006 13.7632Z" fill="#F0F0F0"/>
<path d="M14.5975 13.7632L14.8422 14.2591L15.3894 14.3385L14.9934 14.7244L15.0869 15.2694L14.5975 15.0122L14.1081 15.2694L14.2016 14.7244L13.8056 14.3385L14.3528 14.2591L14.5975 13.7632Z" fill="#F0F0F0"/>
<path d="M16.7944 13.7632L17.0391 14.2591L17.5863 14.3385L17.1903 14.7244L17.2838 15.2694L16.7944 15.0122L16.305 15.2694L16.3984 14.7244L16.0025 14.3385L16.5497 14.2591L16.7944 13.7632Z" fill="#F0F0F0"/>
<path d="M5.8097 15.7416L6.05439 16.2375L6.60157 16.3169L6.20563 16.7028L6.29907 17.2478L5.8097 16.9906L5.32032 17.2478L5.41376 16.7028L5.01782 16.3169L5.56501 16.2375L5.8097 15.7416Z" fill="#F0F0F0"/>
<path d="M8.00657 15.7416L8.25157 16.2375L8.79875 16.3169L8.4025 16.7028L8.49625 17.2478L8.00657 16.9906L7.51719 17.2478L7.61063 16.7028L7.21469 16.3169L7.76188 16.2375L8.00657 15.7416Z" fill="#F0F0F0"/>
<path d="M10.2037 15.7416L10.4484 16.2375L10.9956 16.3169L10.5997 16.7028L10.6931 17.2478L10.2037 16.9906L9.71406 17.2478L9.8075 16.7028L9.41156 16.3169L9.95875 16.2375L10.2037 15.7416Z" fill="#F0F0F0"/>
<path d="M12.4006 15.7416L12.6453 16.2375L13.1925 16.3169L12.7966 16.7028L12.89 17.2478L12.4006 16.9906L11.9113 17.2478L12.0047 16.7028L11.6088 16.3169L12.156 16.2375L12.4006 15.7416Z" fill="#F0F0F0"/>
<path d="M14.5975 15.7416L14.8422 16.2375L15.3894 16.3169L14.9934 16.7028L15.0869 17.2478L14.5975 16.9906L14.1081 17.2478L14.2016 16.7028L13.8056 16.3169L14.3528 16.2375L14.5975 15.7416Z" fill="#F0F0F0"/>
<path d="M16.7944 15.7416L17.0391 16.2375L17.5863 16.3169L17.1903 16.7028L17.2838 17.2478L16.7944 16.9906L16.305 17.2478L16.3984 16.7028L16.0025 16.3169L16.5497 16.2375L16.7944 15.7416Z" fill="#F0F0F0"/>
</svg>
