<svg width="50" height="50" viewBox="0 0 50 50" fill="none" xmlns="http://www.w3.org/2000/svg">
<path d="M33.6147 27.027L29.3587 25.1354C29.058 25.0018 28.8639 24.7029 28.8639 24.374V23.2052C30.2936 22.066 31.2125 20.3118 31.2125 18.346V16.7008C31.6835 16.4405 31.9953 15.9376 31.9953 15.3743V15.2147C31.9953 11.7893 29.2085 9.00244 25.7831 9.00244H24.2175C20.7921 9.00244 18.0052 11.7893 18.0052 15.2147V16.6634C18.0052 17.1585 18.2183 17.607 18.5897 17.8941C18.6527 17.9427 18.719 17.9855 18.7881 18.0225V18.3459C18.7881 20.3117 19.7069 22.0659 21.1365 23.205V24.3739C21.1365 24.7028 20.9423 25.0017 20.6417 25.1353L16.3856 27.0269C14.9917 27.6463 14.0911 29.0323 14.0911 30.5576V40.265C14.0911 40.6695 14.419 40.9974 14.8235 40.9974C15.228 40.9974 15.5559 40.6695 15.5559 40.265V30.5577C15.5559 30.4728 15.562 30.3889 15.5708 30.3057L17.5319 32.2668C17.8371 32.5721 18.0052 32.9779 18.0052 33.4096V40.2651C18.0052 40.6696 18.3332 40.9975 18.7377 40.9975C19.1422 40.9975 19.4701 40.6696 19.4701 40.2651V33.4096C19.4701 32.5867 19.1497 31.813 18.5677 31.2311L16.2297 28.893C16.4404 28.6745 16.6931 28.4933 16.9806 28.3655L21.1649 26.5058L24.2679 29.6088V40.265C24.2679 40.6695 24.5959 40.9974 25.0004 40.9974C25.4049 40.9974 25.7328 40.6695 25.7328 40.265V29.6089L28.8358 26.5059L33.02 28.3655C33.3075 28.4933 33.5603 28.6745 33.7709 28.8931L31.4329 31.2311C30.851 31.813 30.5306 32.5867 30.5306 33.4096V40.2651C30.5306 40.6696 30.8585 40.9975 31.263 40.9975C31.6675 40.9975 31.9954 40.6696 31.9954 40.2651V33.4096C31.9954 32.978 32.1635 32.5721 32.4688 32.2668L34.4298 30.3058C34.4386 30.389 34.4446 30.4727 34.4446 30.5576V40.265C34.4446 40.6695 34.7726 40.9974 35.1771 40.9974C35.5816 40.9974 35.9095 40.6695 35.9095 40.265V30.5577C35.9092 29.0324 35.0086 27.6464 33.6147 27.027ZM25.0001 28.2698L22.2773 25.5469C22.4843 25.1986 22.6012 24.7955 22.6012 24.374V24.0759C23.3398 24.3863 24.1503 24.5582 25.0002 24.5582C25.8501 24.5582 26.6604 24.3864 27.3989 24.076V24.374C27.3989 24.7956 27.5158 25.1986 27.7229 25.547L25.0001 28.2698ZM25.0002 23.0933C22.3825 23.0934 20.2528 20.9637 20.2528 18.346V18.0166C20.7098 17.8355 21.1559 17.5472 21.583 17.1531C21.8801 16.8788 21.8988 16.4154 21.6244 16.1182C21.3501 15.821 20.8868 15.8024 20.5894 16.0767C20.2231 16.4149 19.8571 16.6333 19.5018 16.7261C19.4932 16.7283 19.4869 16.7293 19.4824 16.7297C19.4771 16.7194 19.47 16.698 19.47 16.6635V15.2148C19.47 12.5971 21.5997 10.4674 24.2174 10.4674H25.783C28.4008 10.4674 30.5304 12.5971 30.5304 15.2148V15.3744C30.5304 15.3982 30.5161 15.4188 30.4974 15.4225C26.1115 16.2887 23.9117 14.6562 23.1695 13.914C22.8835 13.6279 22.4197 13.6279 22.1338 13.914C21.8477 14.2 21.8477 14.6638 22.1338 14.9497C24.4082 17.2241 27.727 17.2652 29.7476 17.0224V18.3459C29.7476 20.9636 27.6179 23.0933 25.0002 23.0933Z" fill="#E0E0E0"/>
<path d="M13.2073 23.0431V21.4772C13.2073 19.5664 12.2143 17.8844 10.7181 16.9164C10.8105 16.62 10.8587 16.3096 10.8587 15.9974C10.8587 14.2985 9.47668 12.9165 7.77785 12.9165C6.07902 12.9165 4.69698 14.2986 4.69698 15.9974C4.69698 16.3135 4.74483 16.6209 4.83741 16.9166C3.34132 17.8845 2.34844 19.5665 2.34844 21.4772V23.0428C2.34844 24.8931 3.2794 26.5292 4.69688 27.5099V29.1205C4.69688 29.4382 4.52042 29.7238 4.23634 29.8659L1.70303 31.1325C0.65254 31.6578 0 32.7137 0 33.8882V40.2651C0 40.6696 0.32793 40.9975 0.732423 40.9975C1.13692 40.9975 1.46485 40.6696 1.46485 40.2651V34.205L2.65801 35.3982C2.96319 35.7035 3.13135 36.1092 3.13135 36.541V40.2651C3.13135 40.6696 3.45928 40.9975 3.86378 40.9975C4.26827 40.9975 4.5962 40.6696 4.5962 40.2651V36.541C4.5962 35.718 4.27569 34.9444 3.69385 34.3624L2.03321 32.7018C2.0252 32.6938 2.01661 32.6869 2.0084 32.6793C2.1126 32.5873 2.2295 32.5073 2.35821 32.4428L4.89151 31.1762C5.0213 31.1113 5.1421 31.0346 5.2547 30.9494L7.04542 32.7403V40.2652C7.04542 40.6697 7.37335 40.9976 7.77785 40.9976C8.18234 40.9976 8.51027 40.6697 8.51027 40.2652V32.7402L10.3011 30.9494C10.4138 31.0346 10.5345 31.1113 10.6643 31.1761L11.3628 31.5254C11.468 31.5781 11.5797 31.603 11.6899 31.603C11.9585 31.603 12.2172 31.4545 12.3455 31.198C12.5265 30.8362 12.3798 30.3962 12.018 30.2154L11.3195 29.866C11.0353 29.724 10.8588 29.4384 10.8588 29.1208V27.5102C12.2763 26.5295 13.2073 24.8933 13.2073 23.0431ZM7.77785 14.3814C8.66896 14.3814 9.39387 15.1064 9.39387 15.9974C9.39387 16.0955 9.38508 16.1917 9.36828 16.2859C8.86496 16.1315 8.33107 16.0478 7.77785 16.0478C7.2254 16.0478 6.6922 16.1312 6.18966 16.2853C6.17277 16.191 6.16183 16.0953 6.16183 15.9974C6.16183 15.1063 6.88673 14.3814 7.77785 14.3814ZM7.77785 17.5127C9.96389 17.5127 11.7424 19.2912 11.7424 21.4773V21.7427C8.69308 22.6763 6.87579 20.3567 6.79816 20.255C6.67072 20.0852 6.47589 19.9789 6.26417 19.9639C6.05245 19.949 5.84444 20.0265 5.69435 20.1766C4.99522 20.8757 4.31046 21.2129 3.81593 21.3757C3.87012 19.2364 5.62589 17.5127 7.77785 17.5127ZM7.77785 31.4009L6.08536 29.7084C6.13478 29.5196 6.16183 29.3227 6.16183 29.1206V28.2266C6.67247 28.3862 7.21535 28.4722 7.77785 28.4722C8.34035 28.4722 8.88322 28.3862 9.39387 28.2266V29.1206C9.39387 29.3227 9.42092 29.5197 9.47033 29.7084L7.77785 31.4009ZM7.77785 27.0073C5.59181 27.0073 3.81329 25.2288 3.81329 23.0428V22.891C4.39737 22.7569 5.26339 22.445 6.16681 21.7185C6.48644 22.02 6.94327 22.39 7.52501 22.7072C8.2131 23.0825 9.1634 23.4297 10.3241 23.4297C10.7653 23.4297 11.2372 23.3784 11.7362 23.2607C11.6226 25.3458 9.89074 27.0073 7.77785 27.0073Z" fill="#E0E0E0"/>
<path d="M48.2971 29.567L44.1981 27.5175C43.9141 27.3754 43.7376 27.0898 43.7376 26.7723V25.7343C44.6971 24.8824 45.3032 23.641 45.3032 22.2601V21.4265C45.3201 21.4265 45.3367 21.4269 45.3536 21.4269C45.7581 21.4269 46.086 21.099 46.086 20.6945V19.1289C46.086 16.5668 44.0016 14.4823 41.4395 14.4823H39.8738C37.3117 14.4823 35.2272 16.5668 35.2272 19.1289V20.6945C35.2272 21.099 35.5552 21.4269 35.9597 21.4269C35.9657 21.4269 35.9833 21.4267 36.01 21.4257V22.2601C36.01 23.6411 36.6163 24.8825 37.5758 25.7344V26.7724C37.5758 27.09 37.3993 27.3756 37.1151 27.5176C36.7533 27.6984 36.6066 28.1384 36.7876 28.5002C36.9159 28.7568 37.1746 28.9053 37.4433 28.9053C37.5533 28.9053 37.665 28.8804 37.7702 28.8278C37.9 28.7629 38.0208 28.6862 38.1334 28.6011L39.9242 30.3919V40.2653C39.9242 40.6698 40.2521 40.9977 40.6566 40.9977C41.0611 40.9977 41.3891 40.6698 41.3891 40.2653V30.3917L43.1798 28.6009C43.2925 28.6861 43.4132 28.7628 43.543 28.8276L47.5093 30.8109L46.3063 32.0139C45.7244 32.5958 45.4039 33.3694 45.4039 34.1924V40.2651C45.4039 40.6696 45.7318 40.9975 46.1363 40.9975C46.5408 40.9975 46.8688 40.6696 46.8688 40.2651V34.1924C46.8688 33.7608 47.0368 33.3549 47.3421 33.0496L48.4817 31.9101C48.5162 32.0426 48.5352 32.1808 48.5352 32.3226V40.2651C48.5352 40.6696 48.8631 40.9975 49.2676 40.9975C49.6721 40.9975 50 40.6696 50 40.2651V32.3226C50.0001 31.1482 49.3476 30.0923 48.2971 29.567ZM36.692 19.8114V19.1288H36.6921C36.6921 17.3744 38.1194 15.947 39.8738 15.947H41.4395C43.1938 15.947 44.6212 17.3744 44.6212 19.1288V19.9424C41.4373 19.7706 39.5159 18.5316 39.4973 18.5194C39.3733 18.4368 39.2319 18.3964 39.0912 18.3964C38.9021 18.3964 38.7146 18.4694 38.573 18.6109C37.8723 19.3117 37.1856 19.649 36.692 19.8114ZM40.6566 29.0525L38.9642 27.3601C39.0136 27.1712 39.0406 26.9743 39.0406 26.7723V26.6163C39.5441 26.8037 40.0886 26.9066 40.6566 26.9066C41.2247 26.9066 41.7691 26.8037 42.2727 26.6163V26.7723C42.2727 26.9743 42.2996 27.1712 42.3491 27.3601L40.6566 29.0525ZM40.6566 25.4419C38.9022 25.4419 37.4749 24.0146 37.4749 22.2601V21.0794C37.9879 20.8744 38.5855 20.5485 39.1937 20.0304C39.9629 20.4306 41.5721 21.1223 43.8384 21.3508V22.2601C43.8384 24.0145 42.411 25.4419 40.6566 25.4419Z" fill="#E0E0E0"/>
</svg>
