<svg width="40" height="40" viewBox="0 0 40 40" fill="none" xmlns="http://www.w3.org/2000/svg">
<path d="M3.75 8.67218H36.25V31.3275H3.75V8.67218Z" fill="#FED953"/>
<path d="M3.75 8.67218H36.25V14.2553H3.75V8.67218Z" fill="#D60A2E"/>
<path d="M3.75 25.8178H36.25V31.4009H3.75V25.8178Z" fill="#D60A2E"/>
<path d="M12.6694 16.76C12.5715 16.6529 12.4351 16.589 12.2902 16.5825C12.1453 16.5759 12.0037 16.6272 11.8966 16.725L11.0153 17.5296V17.129C11.0153 16.984 10.9577 16.8449 10.8551 16.7423C10.7526 16.6398 10.6135 16.5821 10.4684 16.5821C10.3234 16.5821 10.1843 16.6398 10.0817 16.7423C9.97917 16.8449 9.92155 16.984 9.92155 17.129V17.5296L9.04062 16.725C8.93258 16.6346 8.79385 16.5894 8.65331 16.5988C8.51277 16.6081 8.38127 16.6714 8.28621 16.7753C8.19114 16.8792 8.13984 17.0158 8.14299 17.1566C8.14614 17.2975 8.2035 17.4316 8.30312 17.5312L9.05874 18.2212H8.80874C8.6637 18.2212 8.5246 18.2788 8.42204 18.3814C8.31948 18.4839 8.26187 18.623 8.26187 18.7681V22.0899C8.2618 22.2081 8.30001 22.323 8.37077 22.4176C8.44153 22.5122 8.54103 22.5813 8.65437 22.6146L9.77937 22.9456C10.2297 23.0784 10.7088 23.0784 11.1591 22.9456L12.2841 22.6146C12.3974 22.5813 12.4969 22.5122 12.5676 22.4176C12.6384 22.323 12.6766 22.2081 12.6766 22.0899V18.7696C12.6766 18.6246 12.6189 18.4855 12.5164 18.3829C12.4138 18.2804 12.2747 18.2228 12.1297 18.2228H11.8797L12.6344 17.5312C12.741 17.4334 12.8045 17.2973 12.8111 17.1528C12.8176 17.0083 12.7667 16.867 12.6694 16.76Z" fill="#6FA44A"/>
<path d="M6.98248 18.2228C6.83744 18.2228 6.69834 18.2804 6.59578 18.383C6.49323 18.4855 6.43561 18.6246 6.43561 18.7697V22.8712C6.43561 23.0163 6.49323 23.1554 6.59578 23.2579C6.69834 23.3605 6.83744 23.4181 6.98248 23.4181C7.12752 23.4181 7.26662 23.3605 7.36918 23.2579C7.47174 23.1554 7.52936 23.0163 7.52936 22.8712V18.7697C7.52936 18.6246 7.47174 18.4855 7.36918 18.383C7.26662 18.2804 7.12752 18.2228 6.98248 18.2228Z" fill="#6FA44A"/>
<path d="M13.955 18.2228C13.8099 18.2228 13.6708 18.2804 13.5683 18.383C13.4657 18.4855 13.4081 18.6246 13.4081 18.7697V22.8712C13.4081 23.0163 13.4657 23.1554 13.5683 23.2579C13.6708 23.3605 13.8099 23.4181 13.955 23.4181C14.1 23.4181 14.2391 23.3605 14.3417 23.2579C14.4442 23.1554 14.5019 23.0163 14.5019 22.8712V18.7697C14.5019 18.6246 14.4442 18.4855 14.3417 18.383C14.2391 18.2804 14.1 18.2228 13.955 18.2228Z" fill="#6FA44A"/>
</svg>
