<svg width="40" height="40" viewBox="0 0 40 40" fill="none" xmlns="http://www.w3.org/2000/svg">
<path d="M3.75 8.67218H36.25V31.3275H3.75V8.67218Z" fill="#477D21"/>
<path d="M3.75 8.67212H36.25V31.3274H3.75V8.67212Z" fill="#477D21"/>
<path d="M20 11.4585L5.38062 20.0001L20 28.5416L34.6194 20.0001L20 11.4585Z" fill="#FED953"/>
<path d="M20 24.7966C22.6491 24.7966 24.7966 22.6491 24.7966 20C24.7966 17.3509 22.6491 15.2034 20 15.2034C17.3509 15.2034 15.2034 17.3509 15.2034 20C15.2034 22.6491 17.3509 24.7966 20 24.7966Z" fill="#0B55B1"/>
<path d="M20.1584 17.641C18.796 17.2559 17.3654 17.1764 15.9688 17.4082C15.6377 17.9207 15.4082 18.4921 15.2928 19.0913C16.6831 18.8667 18.1057 18.9493 19.4606 19.3332C21.5588 19.9022 23.2572 21.0281 24.1994 22.3181C24.5166 21.7453 24.7124 21.1132 24.7744 20.4613C23.8097 19.2407 22.1669 18.1857 20.1584 17.641Z" fill="#F0F0F0"/>
</svg>
