<svg width="512" height="512" viewBox="0 0 512 512" fill="none" xmlns="http://www.w3.org/2000/svg">
<path d="M232.3 1C172.5 6.79999 117.7 32.6 75.2 75C35.5 114.7 11.2 163.2 2.3 221C-0.1 237.1 -0.1 274.9 2.3 291C11.2 348.7 35.3 396.9 75 436.8C114.7 476.5 163.2 500.8 221 509.7C237.1 512.1 274.9 512.1 291 509.7C348.7 500.8 396.9 476.7 436.8 437C476.5 397.3 500.8 348.8 509.7 291C512.1 274.9 512.1 237.1 509.7 221C500.8 163.3 476.7 115.1 437 75.2C397.6 35.7 348.5 11.1 292 2.5C279.5 0.600006 245.2 -0.200012 232.3 1ZM288.5 42.5C334.7 49.7 375.4 70.4 408.5 103.5C441.9 136.9 462.3 177.3 469.7 224.5C470.9 232.3 471.4 241.5 471.4 256C471.4 270.5 470.9 279.7 469.7 287.5C462.3 334.7 441.9 375.1 408.5 408.5C375.1 441.9 334.7 462.3 287.5 469.7C272.4 472.1 239.6 472.1 224.5 469.7C177.3 462.3 136.9 441.9 103.5 408.5C70.1 375.1 49.7 334.7 42.3 287.5C39.9 272.4 39.9 239.6 42.3 224.5C49.7 177.3 70.1 136.9 103.5 103.5C140.3 66.7 184 46.3 238.5 40.6C246.6 39.8 278.8 41 288.5 42.5Z" fill="white"/>
<path d="M347 170.6C344.8 171.5 321.3 194.3 282.3 233.3L221 294.4L195.3 268.8C181.1 254.8 168.1 242.6 166.5 241.7C156.2 236.5 144.6 240.2 139.5 250.4C136.5 256.4 136.3 261.9 139 267.4C140.2 270.1 153.2 283.7 175.7 306.1C203.1 333.4 211.3 341 214.4 342C219.5 343.6 227.2 342.7 231.3 339.9C236.1 336.6 367.6 205.2 371.3 200C374.1 196 374.5 194.7 374.5 188.8C374.5 183 374.1 181.6 371.5 177.9C365.9 170 355.6 166.9 347 170.6Z" fill="white"/>
</svg>
