<svg width="30" height="30" viewBox="0 0 30 30" fill="none" xmlns="http://www.w3.org/2000/svg">
<path d="M9.49219 5.03613C8.92383 5.17676 8.26172 5.70996 8.00977 6.22558C7.94531 6.37207 6.78516 10.0693 5.44336 14.4521C3.00586 22.4033 3 22.415 3 22.9424C3 23.3936 3.01758 23.5166 3.15234 23.8096C3.35742 24.249 3.81445 24.7236 4.23633 24.9404C4.54688 25.0986 4.62891 25.1104 5.19727 25.1104C5.7832 25.1104 5.83008 25.0986 6.21094 24.9111C6.66211 24.6768 7.01367 24.3193 7.21875 23.8799C7.29492 23.7158 7.57617 22.7842 7.8457 21.7998L8.33789 20.0127L11.2383 19.9951L14.1387 19.9834L14.6777 21.7822C14.9766 22.7725 15.2871 23.7217 15.3691 23.8916C15.5625 24.2842 16.0488 24.7471 16.4824 24.9521C16.7871 25.0928 16.8926 25.1104 17.4375 25.1104C18.0176 25.1104 18.082 25.0986 18.4453 24.917C18.9434 24.6768 19.4238 24.167 19.6113 23.6924C19.7168 23.4287 19.7461 23.2412 19.7402 22.8252V22.2979L17.2969 14.4463C15.9551 10.1279 14.7773 6.43652 14.6836 6.2373C14.4727 5.80371 14.0391 5.38183 13.582 5.1709L13.248 5.01269L11.4609 5.00097C10.4766 4.99512 9.5918 5.01269 9.49219 5.03613ZM11.3672 9.06738C11.6309 10.1514 12.2344 12.3369 12.8672 14.4932C13.1895 15.5771 13.4531 16.4971 13.4531 16.5264C13.4531 16.5615 12.6738 16.585 11.2559 16.585C9.25781 16.585 9.05859 16.5732 9.05859 16.4912C9.05859 16.4385 9.32227 15.4541 9.64453 14.3057C10.2539 12.1201 10.541 10.9951 10.9102 9.36035C11.0332 8.82129 11.1504 8.38183 11.168 8.38183C11.1855 8.38183 11.2793 8.69238 11.3672 9.06738Z" fill="#7E7E7E"/>
<path d="M19.1484 3.33416C18.9258 3.40448 18.6973 3.59784 18.5215 3.85565C18.3984 4.03143 18.3691 4.14276 18.3691 4.45916C18.3691 4.78143 18.3926 4.88104 18.5273 5.0744C18.6211 5.2033 19.4648 6.07049 20.4023 7.00799C21.9609 8.54901 22.1602 8.72479 22.5586 8.92401C23.8477 9.56268 25.2949 9.39276 26.4199 8.46698C26.6309 8.29705 27.4981 7.45916 28.3359 6.60955C29.6836 5.25604 29.877 5.03338 29.9414 4.80487C30.082 4.28338 29.8828 3.7619 29.4317 3.45721C29.127 3.25213 28.541 3.24627 28.2422 3.45135C28.1309 3.52752 27.2988 4.3244 26.3965 5.22088C24.0234 7.57049 24.2285 7.57049 21.9023 5.18573C21.0938 4.36541 20.3203 3.60955 20.1738 3.50995C19.8984 3.31659 19.4414 3.24041 19.1484 3.33416Z" fill="#7E7E7E"/>
</svg>
