<svg width="21" height="21" viewBox="0 0 21 21" fill="none" xmlns="http://www.w3.org/2000/svg">
<path d="M8.27853 0.125H0.508692C0.277488 0.125 0.0898438 0.312644 0.0898438 0.543848V8.3139C0.0898438 8.5451 0.277488 8.73275 0.508692 8.73275H8.27853C8.50974 8.73275 8.69738 8.5451 8.69738 8.3139V0.543848C8.69738 0.312644 8.50974 0.125 8.27853 0.125Z" fill="#448DCA"/>
<path d="M19.6708 0.125H11.9008C11.6696 0.125 11.4819 0.312644 11.4819 0.543848V8.3139C11.4819 8.5451 11.6696 8.73275 11.9008 8.73275H19.6708C19.902 8.73275 20.0897 8.5451 20.0897 8.3139V0.543848C20.0897 0.312644 19.9023 0.125 19.6708 0.125Z" fill="#448DCA"/>
<path d="M8.27853 11.5171H0.508692C0.277488 11.5171 0.0898438 11.7047 0.0898438 11.9359V19.706C0.0898438 19.9372 0.277488 20.1248 0.508692 20.1248H8.27853C8.50974 20.1248 8.69738 19.9372 8.69738 19.706V11.9359C8.69738 11.7049 8.50974 11.5171 8.27853 11.5171Z" fill="#448DCA"/>
<path d="M19.6708 11.5171H11.9008C11.6696 11.5171 11.4819 11.7047 11.4819 11.9359V19.706C11.4819 19.9372 11.6696 20.1248 11.9008 20.1248H19.6708C19.902 20.1248 20.0897 19.9372 20.0897 19.706V11.9359C20.0897 11.7049 19.9023 11.5171 19.6708 11.5171Z" fill="#448DCA"/>
</svg>
