<svg width="21" height="21" viewBox="0 0 21 21" fill="none" xmlns="http://www.w3.org/2000/svg">
<path d="M19.4437 0.876953H0.736166C0.379827 0.876953 0.0898438 1.16694 0.0898438 1.52328V4.39596C0.0898438 4.7523 0.379827 5.04228 0.736166 5.04228H19.4435C19.7996 5.04228 20.0898 4.7523 20.0898 4.39596V1.52328C20.0901 1.16694 19.8001 0.876953 19.4437 0.876953Z" fill="#448DCA"/>
<path d="M19.4437 8.41748H0.736166C0.379827 8.41748 0.0898438 8.70746 0.0898438 9.0638V11.9365C0.0898438 12.2928 0.379827 12.5828 0.736166 12.5828H19.4435C19.7996 12.5828 20.0898 12.2928 20.0898 11.9365V9.0638C20.0901 8.70746 19.8001 8.41748 19.4437 8.41748Z" fill="#448DCA"/>
<path d="M19.4437 15.958H0.736166C0.379827 15.958 0.0898438 16.248 0.0898438 16.6043V19.477C0.0898438 19.8334 0.379827 20.1233 0.736166 20.1233H19.4435C19.7996 20.1233 20.0898 19.8334 20.0898 19.477V16.6043C20.0901 16.2478 19.8001 15.958 19.4437 15.958Z" fill="#448DCA"/>
</svg>
