<svg width="50" height="50" viewBox="0 0 50 50" fill="none" xmlns="http://www.w3.org/2000/svg">
<path d="M44.3939 8.48479H23.71L20.0091 4.57358C18.4307 2.85539 16.627 2.02014 14.4949 2.02014H5.60606C2.51485 2.02014 0 4.53499 0 7.6262V42.3737C0 45.4649 2.51485 47.9797 5.60606 47.9797H44.3939C47.4851 47.9797 50 45.4649 50 42.3737V14.0908C50 10.9996 47.4851 8.48479 44.3939 8.48479ZM48.4848 42.3737C48.4848 44.6294 46.6497 46.4646 44.3939 46.4646H5.60606C3.3503 46.4646 1.51515 44.6294 1.51515 42.3737V18.9393C1.51515 16.6836 3.3503 14.8484 5.60606 14.8484H44.3939C46.6497 14.8484 48.4848 16.6836 48.4848 18.9393V42.3737ZM44.3939 13.3333H5.60606C3.99354 13.3333 2.53889 14.0185 1.51515 15.1121V7.6262C1.51515 5.37044 3.3503 3.53529 5.60606 3.53529H14.4949C16.204 3.53529 17.6028 4.19216 18.8969 5.60246C18.8995 5.60529 18.9021 5.60822 18.9048 5.61095L22.8336 9.76297C22.9767 9.91418 23.1757 9.99994 23.3838 9.99994H44.3939C46.6497 9.99994 48.4848 11.8351 48.4848 14.0908V15.1121C47.4611 14.0185 46.0065 13.3333 44.3939 13.3333Z" fill="#E0E0E0"/>
<path d="M43.5859 18.1818H33.0808C32.6624 18.1818 32.3232 18.5209 32.3232 18.9393C32.3232 19.3578 32.6624 19.6969 33.0808 19.6969H43.5859C44.0043 19.6969 44.3434 19.3578 44.3434 18.9393C44.3434 18.5209 44.0043 18.1818 43.5859 18.1818Z" fill="#E0E0E0"/>
<path d="M43.5859 22.2222H33.0808C32.6624 22.2222 32.3232 22.5613 32.3232 22.9797C32.3232 23.3982 32.6624 23.7373 33.0808 23.7373H43.5859C44.0043 23.7373 44.3434 23.3982 44.3434 22.9797C44.3434 22.5613 44.0043 22.2222 43.5859 22.2222Z" fill="#E0E0E0"/>
</svg>
