<svg width="50" height="50" viewBox="0 0 50 50" fill="none" xmlns="http://www.w3.org/2000/svg">
<path d="M25 0C11.2142 0 0 11.2142 0 25C0 38.7858 11.2142 50 25 50C38.7858 50 50 38.7858 50 25C50 11.2142 38.7858 0 25 0ZM25 46.1271C13.3521 46.1271 3.87295 36.6479 3.87295 25C3.87295 13.3521 13.3521 3.87295 25 3.87295C36.6499 3.87295 46.1271 13.3521 46.1271 25C46.1271 36.6479 36.6479 46.1271 25 46.1271Z" fill="#E0E0E0"/>
<path d="M37.9394 15.3996C37.4128 14.8676 36.5584 14.8667 36.0318 15.3974L19.8475 31.6766L14.0082 25.2805C13.5037 24.7282 12.6506 24.6924 12.102 25.2011C11.5538 25.71 11.5187 26.5708 12.0233 27.1236L18.8136 34.561C19.0623 34.8336 19.4103 34.9919 19.7773 34.9996C19.7872 35 19.7967 35 19.8061 35C20.1627 35 20.5058 34.8571 20.7585 34.6032L37.9367 17.3239C38.4647 16.7933 38.4656 15.9316 37.9394 15.3996Z" fill="#E0E0E0"/>
<path d="M25 0C11.2142 0 0 11.2142 0 25C0 38.7858 11.2142 50 25 50C38.7858 50 50 38.7858 50 25C50 11.2142 38.7858 0 25 0ZM25 46.1271C13.3521 46.1271 3.87295 36.6479 3.87295 25C3.87295 13.3521 13.3521 3.87295 25 3.87295C36.6499 3.87295 46.1271 13.3521 46.1271 25C46.1271 36.6479 36.6479 46.1271 25 46.1271Z" fill="white"/>
<path d="M37.9394 15.3996C37.4128 14.8676 36.5584 14.8667 36.0318 15.3974L19.8475 31.6766L14.0082 25.2805C13.5037 24.7282 12.6506 24.6924 12.102 25.2011C11.5538 25.71 11.5187 26.5708 12.0233 27.1236L18.8136 34.561C19.0623 34.8336 19.4103 34.9919 19.7773 34.9996C19.7872 35 19.7967 35 19.8061 35C20.1627 35 20.5058 34.8571 20.7585 34.6032L37.9367 17.3239C38.4647 16.7933 38.4656 15.9316 37.9394 15.3996Z" fill="white"/>
<ellipse cx="37.5" cy="41" rx="9.5" ry="9" fill="#0075B1"/>
<path d="M40.5631 41.766L37.7746 39.6746V35.4144C37.7746 34.986 37.4283 34.6398 37 34.6398C36.5716 34.6398 36.2253 34.986 36.2253 35.4144V40.062C36.2253 40.3059 36.34 40.536 36.5352 40.6816L39.6335 43.0054C39.773 43.11 39.9357 43.1604 40.0975 43.1604C40.3338 43.1604 40.5662 43.0542 40.718 42.8497C40.9752 42.5081 40.9055 42.0224 40.5631 41.766Z" fill="#96CBE2"/>
<path d="M37 30C31.4857 30 27 34.4857 27 40C27 45.5143 31.4857 50 37 50C42.5143 50 47 45.5143 47 40C47 34.4857 42.5143 30 37 30ZM37 48.4508C32.3408 48.4508 28.5492 44.6592 28.5492 40C28.5492 35.3408 32.3408 31.5492 37 31.5492C41.66 31.5492 45.4508 35.3408 45.4508 40C45.4508 44.6592 41.6592 48.4508 37 48.4508Z" fill="#96CBE2"/>
</svg>
