<svg width="30" height="16" viewBox="0 0 30 16" fill="none" xmlns="http://www.w3.org/2000/svg">
<path d="M6.66504 0.0744667C5.61621 0.267826 4.49121 0.70142 3.65918 1.23462C2.29395 2.11353 1.09277 3.58423 0.536133 5.06079C-0.178711 6.95337 -0.178711 8.94556 0.536133 10.8381C1.33887 12.9651 3.20215 14.7522 5.40527 15.4963C6.62988 15.9124 6.03809 15.8889 14.9854 15.8889C22.5381 15.8889 23.0713 15.8831 23.54 15.7835C25.1338 15.4436 26.4814 14.7229 27.6064 13.6096C30.7588 10.4924 30.7588 5.4065 27.6064 2.28931C26.5049 1.19947 25.2217 0.502201 23.5986 0.121342C23.1885 0.0217323 22.5967 0.015873 15.1318 0.00415421C8.53418 -0.00756454 7.02832 0.00415421 6.66504 0.0744667ZM8.96191 1.92017C10.8486 2.18384 12.5889 3.48462 13.4619 5.28345C14.3057 7.01197 14.3057 8.88697 13.4619 10.6155C11.499 14.6585 6.03223 15.2678 3.19629 11.7639C2.7041 11.1487 2.26465 10.2815 2.05371 9.5022C1.8252 8.64087 1.8252 7.25806 2.05371 6.39673C2.72754 3.90064 4.90723 2.06665 7.4502 1.85572C7.95996 1.8147 8.34668 1.83228 8.96191 1.92017Z" fill="#7E7E7E"/>
</svg>
