<svg width="30" height="30" viewBox="0 0 30 30" fill="none" xmlns="http://www.w3.org/2000/svg">
<path d="M7.38279 7.09023C2.93552 7.43007 -0.386741 11.3441 0.0468531 15.7211C0.410134 19.3422 3.05271 22.1898 6.65037 22.8344C7.19529 22.934 7.79295 22.9398 15 22.9398C23.666 22.9398 23.2558 22.9574 24.5449 22.5297C26.7422 21.7914 28.582 20.0746 29.4082 17.9828C31.1074 13.6996 28.9043 8.93007 24.5449 7.47695C23.2793 7.04921 23.6601 7.06679 15.4101 7.05507C11.332 7.04921 7.72263 7.06679 7.38279 7.09023ZM23.584 9.0121C24.4453 9.2582 25.1015 9.5746 25.7929 10.0902C27.5625 11.3969 28.5176 13.7641 28.1601 15.9379C27.7441 18.4516 26.0273 20.3207 23.4961 21.018C23.1972 21.1 22.8926 21.1234 22.0605 21.1234C20.748 21.1234 20.1797 20.9887 19.1601 20.4379C16.8398 19.1957 15.539 16.6059 15.9609 14.0629C16.3769 11.5668 18.2109 9.56288 20.5957 9.00624C21.2344 8.8539 21.2461 8.8539 22.2363 8.87734C22.9453 8.89492 23.2734 8.92421 23.584 9.0121Z" fill="#7E7E7E"/>
</svg>
