<svg width="30" height="30" viewBox="0 0 30 30" fill="none" xmlns="http://www.w3.org/2000/svg">
<path d="M6.52734 4.97461C5.95899 5.11523 5.29688 5.64844 5.04492 6.16406C4.98047 6.31054 3.82031 10.0078 2.47852 14.3906C0.0410156 22.3418 0.0351562 22.3535 0.0351562 22.8809C0.0351562 23.332 0.0527344 23.4551 0.1875 23.748C0.392578 24.1875 0.849609 24.6621 1.27148 24.8789C1.58203 25.0371 1.66406 25.0488 2.23242 25.0488C2.81836 25.0488 2.86523 25.0371 3.24609 24.8496C3.69727 24.6152 4.04883 24.2578 4.25391 23.8184C4.33008 23.6543 4.61133 22.7227 4.88086 21.7383L5.37305 19.9512L8.27344 19.9336L11.1738 19.9219L11.7129 21.7207C12.0117 22.7109 12.3223 23.6602 12.4043 23.8301C12.5977 24.2227 13.084 24.6855 13.5176 24.8906C13.8223 25.0312 13.9277 25.0488 14.4727 25.0488C15.0527 25.0488 15.1172 25.0371 15.4805 24.8555C15.9785 24.6152 16.459 24.1055 16.6465 23.6309C16.752 23.3672 16.7813 23.1797 16.7754 22.7637V22.2363L14.332 14.3848C12.9902 10.0664 11.8125 6.375 11.7188 6.17578C11.5078 5.74219 11.0742 5.32031 10.6172 5.10937L10.2832 4.95117L8.49609 4.93945C7.51172 4.93359 6.62695 4.95117 6.52734 4.97461ZM8.40234 9.00586C8.66602 10.0898 9.26953 12.2754 9.90235 14.4316C10.2246 15.5156 10.4883 16.4355 10.4883 16.4648C10.4883 16.5 9.70899 16.5234 8.29102 16.5234C6.29297 16.5234 6.09375 16.5117 6.09375 16.4297C6.09375 16.377 6.35742 15.3926 6.67969 14.2441C7.28906 12.0586 7.57617 10.9336 7.94531 9.29883C8.06836 8.75976 8.18555 8.32031 8.20313 8.32031C8.2207 8.32031 8.31445 8.63086 8.40234 9.00586Z" fill="#7E7E7E"/>
<path d="M24.1113 12.5742C22.7168 12.6504 21.0996 13.0195 20.6602 13.3652C20.25 13.6875 20.127 14.3965 20.3965 14.8828C20.7129 15.4629 21.293 15.6445 22.0606 15.416C23.666 14.9414 25.2012 15.0527 25.7871 15.6856C26.0098 15.9199 26.1211 16.166 26.168 16.5059L26.2031 16.7988L25.4531 16.8399C24.0762 16.916 22.8926 17.1387 21.9844 17.4961C20.666 18.0176 19.6875 18.9727 19.3301 20.0977C19.1543 20.6426 19.1133 21.8027 19.2481 22.3184C19.4531 23.1211 19.9336 23.8477 20.5664 24.3223C20.9824 24.6387 21.3692 24.8145 21.9785 24.9668C22.3945 25.0723 22.5762 25.0899 23.2324 25.0606C24.4805 25.0137 25.3301 24.6856 26.0859 23.9707C26.3496 23.7246 26.4902 23.625 26.5137 23.6777C26.5254 23.7246 26.5664 23.8887 26.6016 24.0469C26.7539 24.7324 26.9941 24.8438 28.3477 24.8438C29.4199 24.8438 29.6016 24.7969 29.8476 24.4688C29.9648 24.3164 29.9648 24.2285 29.9531 20.8418C29.9414 18.9375 29.9062 17.127 29.8769 16.8223C29.6543 14.7656 28.5937 13.4063 26.7773 12.8438C26.1328 12.6445 24.9785 12.5332 24.1113 12.5742ZM26.3027 20.0801C26.2793 20.9531 26.2676 21.0234 26.1152 21.3399C25.7754 22.0313 25.084 22.4473 24.2813 22.4473C23.6074 22.4473 23.1914 22.207 22.9512 21.6797C22.8047 21.3516 22.793 20.7539 22.9336 20.4199C23.2617 19.6465 24.3164 19.2012 25.8926 19.166L26.3203 19.1602L26.3027 20.0801Z" fill="#7E7E7E"/>
</svg>
